<svg width="211" height="133" viewBox="0 0 211 133" fill="none" xmlns="http://www.w3.org/2000/svg">
<path d="M144.61 78.4004H58.2002V104H144.61V78.4004Z" fill="#95D5D2"/>
<path d="M19.4301 113.14C24.4448 113.14 28.5101 109.075 28.5101 104.06C28.5101 99.0457 24.4448 94.9805 19.4301 94.9805C14.4154 94.9805 10.3501 99.0457 10.3501 104.06C10.3501 109.075 14.4154 113.14 19.4301 113.14Z" fill="#F9BFD1"/>
<path d="M120.3 9.08002C122.807 9.08002 124.84 7.04741 124.84 4.54004C124.84 2.03267 122.807 0 120.3 0C117.792 0 115.76 2.03267 115.76 4.54004C115.76 7.04741 117.792 9.08002 120.3 9.08002Z" fill="#EF3A58"/>
<path d="M206.87 88.8301L210.6 111.96L188.7 103.62L206.87 88.8301Z" fill="#18AFA1"/>
<path d="M22.67 38.96L16.48 61.5599L0 44.9L22.67 38.96Z" fill="#82ECB7"/>
<path d="M34.1901 4.41992L43.5801 11.4299L32.8101 16.0499L34.1901 4.41992Z" fill="#18AFA1"/>
<path d="M148.67 18.2202L153.6 28.8402L141.93 27.8002L148.67 18.2202Z" fill="#82ECB7"/>
<path d="M91.8439 20.8444L80.4399 14.8564L74.452 26.2604L85.856 32.2483L91.8439 20.8444Z" fill="#FBB54A"/>
<path d="M83.9298 60.1699L89.7898 70.3099H78.0698L83.9298 60.1699Z" fill="#18AFA1"/>
<path d="M101.79 60.1699L107.65 70.3099H95.9398L101.79 60.1699Z" fill="#18AFA1"/>
<path d="M119.66 60.1699L125.52 70.3099H113.8L119.66 60.1699Z" fill="#18AFA1"/>
<path d="M173.75 71.6101C177.268 71.6101 180.12 68.7582 180.12 65.2401C180.12 61.7221 177.268 58.8701 173.75 58.8701C170.232 58.8701 167.38 61.7221 167.38 65.2401C167.38 68.7582 170.232 71.6101 173.75 71.6101Z" fill="#EF3A58"/>
<path d="M83.1498 95.68C85.9554 95.68 88.2298 93.4056 88.2298 90.6C88.2298 87.7944 85.9554 85.52 83.1498 85.52C80.3442 85.52 78.0698 87.7944 78.0698 90.6C78.0698 93.4056 80.3442 95.68 83.1498 95.68Z" fill="#EF3A58"/>
<path d="M101.4 95.68C104.205 95.68 106.48 93.4056 106.48 90.6C106.48 87.7944 104.205 85.52 101.4 85.52C98.5942 85.52 96.3198 87.7944 96.3198 90.6C96.3198 93.4056 98.5942 95.68 101.4 95.68Z" fill="#EF3A58"/>
<path d="M119.66 95.68C122.465 95.68 124.74 93.4056 124.74 90.6C124.74 87.7944 122.465 85.52 119.66 85.52C116.854 85.52 114.58 87.7944 114.58 90.6C114.58 93.4056 116.854 95.68 119.66 95.68Z" fill="#EF3A58"/>
<path d="M88.2198 110.89H78.0698V121.04H88.2198V110.89Z" fill="#FBB54A"/>
<path d="M106.48 110.89H96.3298V121.04H106.48V110.89Z" fill="#FBB54A"/>
<path d="M124.74 110.89H114.59V121.04H124.74V110.89Z" fill="#FBB54A"/>
<path d="M174.435 114.591L164.761 111.519L161.688 121.193L171.362 124.265L174.435 114.591Z" fill="#F9BFD1"/>
<path d="M144.61 48.77H58.2002V50.97H144.61V48.77Z" fill="#221F1F"/>
<path d="M144.61 130.2H58.2002V132.4H144.61V130.2Z" fill="#221F1F"/>
</svg>
