<svg width="143" height="95" viewBox="0 0 143 95" fill="none" xmlns="http://www.w3.org/2000/svg">
<path d="M142.48 19.4199H0V35.2899H142.48V19.4199Z" fill="#82ECB7"/>
<path d="M83.32 40.8896H0V56.7596H83.32V40.8896Z" fill="#82ECB7"/>
<path d="M131.44 11.15C124.81 11.15 121.47 8.76999 118.24 6.46999C115.16 4.26999 112.25 2.2 106.32 2.2C100.39 2.2 97.4803 4.27999 94.4003 6.46999C91.1703 8.76999 87.8304 11.15 81.2004 11.15C74.5704 11.15 71.2304 8.76999 68.0004 6.46999C64.9204 4.26999 62.0104 2.2 56.0804 2.2C50.1504 2.2 47.2403 4.27999 44.1603 6.46999C40.9303 8.76999 37.5904 11.15 30.9604 11.15C24.3304 11.15 20.9904 8.76999 17.7604 6.46999C14.6804 4.26999 11.7703 2.2 5.84033 2.2V0C12.4703 0 15.8103 2.37999 19.0403 4.67999C22.1203 6.87999 25.0304 8.95 30.9604 8.95C36.8904 8.95 39.8004 6.86999 42.8804 4.67999C46.1104 2.37999 49.4504 0 56.0804 0C62.7104 0 66.0503 2.37999 69.2803 4.67999C72.3603 6.87999 75.2704 8.95 81.2004 8.95C87.1304 8.95 90.0404 6.86999 93.1204 4.67999C96.3504 2.37999 99.6904 0 106.32 0C112.95 0 116.29 2.37999 119.52 4.67999C122.6 6.87999 125.51 8.95 131.44 8.95V11.15Z" fill="#221F1F"/>
<path d="M131.44 25.3398H5.83008V27.5398H131.44V25.3398Z" fill="#221F1F"/>
<path d="M131.44 46.2002H5.83008V48.4002H131.44V46.2002Z" fill="#221F1F"/>
<path d="M131.44 73.7496C124.81 73.7496 121.47 71.3696 118.24 69.0696C115.16 66.8696 112.25 64.7996 106.32 64.7996C100.39 64.7996 97.4803 66.8796 94.4003 69.0696C91.1703 71.3696 87.8304 73.7496 81.2004 73.7496C74.5704 73.7496 71.2304 71.3696 68.0004 69.0696C64.9204 66.8696 62.0104 64.7996 56.0804 64.7996C50.1504 64.7996 47.2403 66.8796 44.1603 69.0696C40.9303 71.3696 37.5904 73.7496 30.9604 73.7496C24.3304 73.7496 20.9904 71.3696 17.7604 69.0696C14.6804 66.8696 11.7703 64.7996 5.84033 64.7996V62.5996C12.4703 62.5996 15.8103 64.9796 19.0403 67.2796C22.1203 69.4796 25.0304 71.5496 30.9604 71.5496C36.8904 71.5496 39.8004 69.4696 42.8804 67.2796C46.1104 64.9796 49.4504 62.5996 56.0804 62.5996C62.7104 62.5996 66.0503 64.9796 69.2803 67.2796C72.3603 69.4796 75.2704 71.5496 81.2004 71.5496C87.1304 71.5496 90.0404 69.4696 93.1204 67.2796C96.3504 64.9796 99.6904 62.5996 106.32 62.5996C112.95 62.5996 116.29 64.9796 119.52 67.2796C122.6 69.4796 125.51 71.5496 131.44 71.5496V73.7496Z" fill="#221F1F"/>
<path d="M131.44 94.6197C124.81 94.6197 121.47 92.2397 118.24 89.9397C115.16 87.7397 112.25 85.6697 106.32 85.6697C100.39 85.6697 97.4803 87.7497 94.4003 89.9397C91.1703 92.2397 87.8304 94.6197 81.2004 94.6197C74.5704 94.6197 71.2304 92.2397 68.0004 89.9397C64.9204 87.7397 62.0104 85.6697 56.0804 85.6697C50.1504 85.6697 47.2403 87.7497 44.1603 89.9397C40.9303 92.2397 37.5904 94.6197 30.9604 94.6197C24.3304 94.6197 20.9904 92.2397 17.7604 89.9397C14.6804 87.7397 11.7703 85.6697 5.84033 85.6697V83.4697C12.4703 83.4697 15.8103 85.8497 19.0403 88.1497C22.1203 90.3497 25.0304 92.4197 30.9604 92.4197C36.8904 92.4197 39.8004 90.3397 42.8804 88.1497C46.1104 85.8497 49.4504 83.4697 56.0804 83.4697C62.7104 83.4697 66.0503 85.8497 69.2803 88.1497C72.3603 90.3497 75.2704 92.4197 81.2004 92.4197C87.1304 92.4197 90.0404 90.3397 93.1204 88.1497C96.3504 85.8497 99.6904 83.4697 106.32 83.4697C112.95 83.4697 116.29 85.8497 119.52 88.1497C122.6 90.3497 125.51 92.4197 131.44 92.4197V94.6197Z" fill="#221F1F"/>
</svg>
